<?xml version="1.0" encoding="UTF-8" standalone="no"?>
<!-- Created with Inkscape (http://www.inkscape.org/) -->

<svg
   version="1.1"
   id="svg132"
   width="793.70081"
   height="1122.5197"
   viewBox="0 0 793.70077 1122.5197"
   sodipodi:docname="uos_cdt_ukri_square.pdf"
   xmlns:inkscape="http://www.inkscape.org/namespaces/inkscape"
   xmlns:sodipodi="http://sodipodi.sourceforge.net/DTD/sodipodi-0.dtd"
   xmlns="http://www.w3.org/2000/svg"
   xmlns:svg="http://www.w3.org/2000/svg">
  <defs
     id="defs136">
    <clipPath
       clipPathUnits="userSpaceOnUse"
       id="clipPath150">
      <path
         d="M 514,0 H 747 V 264 H 514 Z"
         id="path148" />
    </clipPath>
    <clipPath
       clipPathUnits="userSpaceOnUse"
       id="clipPath156">
      <path
         d="M 514.43,65.992 V 197.98 L 630.66,263.977 746.891,197.98 V 65.992 L 630.66,0 Z"
         id="path154" />
    </clipPath>
    <clipPath
       clipPathUnits="userSpaceOnUse"
       id="clipPath166">
      <path
         d="M 0,0 H 773 V 571 H 0 Z"
         id="path164" />
    </clipPath>
    <linearGradient
       x1="0"
       y1="0"
       x2="1"
       y2="0"
       gradientUnits="userSpaceOnUse"
       gradientTransform="matrix(182.22399,-182.22399,182.22399,182.22399,539.54737,223.099)"
       spreadMethod="pad"
       id="linearGradient184">
      <stop
         style="stop-opacity:1;stop-color:#f9aa24"
         offset="0"
         id="stop180" />
      <stop
         style="stop-opacity:1;stop-color:#f0401e"
         offset="1"
         id="stop182" />
    </linearGradient>
    <clipPath
       clipPathUnits="userSpaceOnUse"
       id="clipPath198">
      <path
         d="M 0,0 H 513.262 V 571 H 0 Z"
         id="path196" />
    </clipPath>
    <clipPath
       clipPathUnits="userSpaceOnUse"
       id="clipPath208">
      <path
         d="M 0,0 H 773 V 571 H 0 Z"
         id="path206" />
    </clipPath>
    <clipPath
       clipPathUnits="userSpaceOnUse"
       id="clipPath218">
      <path
         d="M 0,7.125 H 773 V 566.441 H 0 Z"
         id="path216" />
    </clipPath>
    <clipPath
       clipPathUnits="userSpaceOnUse"
       id="clipPath228">
      <path
         d="M 0,0 H 773 V 571 H 0 Z"
         id="path226" />
    </clipPath>
    <clipPath
       clipPathUnits="userSpaceOnUse"
       id="clipPath310">
      <path
         d="M 498.875,326.16 H 772.633 V 571 H 498.875 Z"
         id="path308" />
    </clipPath>
    <clipPath
       clipPathUnits="userSpaceOnUse"
       id="clipPath320">
      <path
         d="M 0,0 H 773 V 571 H 0 Z"
         id="path318" />
    </clipPath>
    <clipPath
       clipPathUnits="userSpaceOnUse"
       id="clipPath330">
      <path
         d="M 516.418,336.398 H 773 V 570.269 H 516.418 Z"
         id="path328" />
    </clipPath>
    <clipPath
       clipPathUnits="userSpaceOnUse"
       id="clipPath340">
      <path
         d="M 0,0 H 773 V 571 H 0 Z"
         id="path338" />
    </clipPath>
  </defs>
  <sodipodi:namedview
     id="namedview134"
     pagecolor="#ffffff"
     bordercolor="#000000"
     borderopacity="0.25"
     inkscape:showpageshadow="2"
     inkscape:pageopacity="0.0"
     inkscape:pagecheckerboard="0"
     inkscape:deskcolor="#d1d1d1"
     showgrid="false" />
  <g
     id="g140"
     inkscape:groupmode="layer"
     inkscape:label="Page 1"
     transform="matrix(1.3333333,0,0,1.3333333,0,1.9009021e-5)">
    <g
       id="g144">
      <g
         id="g146"
         clip-path="url(#clipPath150)">
        <g
           id="g152"
           clip-path="url(#clipPath156)">
          <g
             id="g158">
            <g
               id="g160">
              <g
                 id="g162"
                 clip-path="url(#clipPath166)">
                <g
                   id="g168">
                  <g
                     id="g170">
                    <g
                       id="g172">
                      <g
                         id="g178">
                        <path
                           d="M 514.43,65.992 V 197.98 L 630.66,263.977 746.891,197.98 V 65.992 L 630.66,0 514.43,65.992"
                           style="fill:url(#linearGradient184);stroke:none"
                           id="path186" />
                      </g>
                    </g>
                  </g>
                </g>
              </g>
            </g>
          </g>
        </g>
      </g>
    </g>
    <g
       id="g188">
      <path
         d="m 710.293,168.457 -33.723,16.855 c -0.511,0.258 -0.945,0.645 -1.265,1.118 l -17.664,26.496 v -12.824 c 0,-1.141 -0.59,-2.2 -1.559,-2.797 -0.527,-0.328 -1.129,-0.493 -1.73,-0.493 -0.504,0 -1.008,0.114 -1.473,0.348 l -30.774,15.387 v -16.336 l 69.254,-34.625 c 1.118,-0.559 1.821,-1.699 1.821,-2.945 V 89.598 l 17.113,-8.555 z M 598.41,200.703 v -16.336 l 17.113,-8.555 v 16.333 z M 574.719,188.855 V 172.52 l 17.113,-8.555 v 16.332 z M 551.027,177.008 V 89.598 L 639.215,45.504 V 61.84 l -69.258,34.629 c -1.113,0.554 -1.816,1.695 -1.816,2.941 v 69.043 z M 662.906,57.352 v 16.336 l -17.109,8.554 V 65.906 Z m 4.762,92.386 c 1.117,-0.558 1.82,-1.699 1.82,-2.941 v -45.352 l 17.11,-8.554 v 63.718 l -64.493,32.246 V 172.52 Z m -45.563,-0.91 21.872,-10.937 c 1.117,-0.555 1.82,-1.696 1.82,-2.942 v -21.66 l 17.109,-8.555 v 40.028 l -40.801,20.402 z m -6.582,3.289 v 16.336 l -17.113,8.555 v -16.332 z m 23.692,-35.535 v 16.332 l -17.11,8.559 v -16.336 z m 6.582,-26.984 17.109,-8.555 v 16.336 l -17.109,8.555 z m -47.387,23.691 40.805,-20.398 v 16.332 l -21.871,10.937 c -1.117,0.559 -1.821,1.695 -1.821,2.945 v 21.657 l -17.113,8.554 z m -6.578,43.316 -17.113,8.559 v -63.719 l 64.496,-32.25 v 16.336 l -45.567,22.781 c -1.113,0.559 -1.816,1.7 -1.816,2.946 z m 94.766,-87.41 v 16.336 l -17.11,8.559 V 77.754 Z m 28.714,3.727 c -0.972,-0.602 -2.183,-0.656 -3.203,-0.145 L 693.18,82.242 V 63.871 c 0,-1.137 -0.59,-2.199 -1.559,-2.797 -0.973,-0.601 -2.183,-0.656 -3.203,-0.144 l -18.93,9.465 V 52.027 c 0,-1.14 -0.59,-2.199 -1.558,-2.8 -0.973,-0.598 -2.188,-0.657 -3.203,-0.141 l -18.93,9.465 V 40.18 c 0,-1.141 -0.59,-2.2 -1.563,-2.797 -0.968,-0.602 -2.183,-0.656 -3.199,-0.145 l -94.769,47.383 c -1.118,0.559 -1.821,1.699 -1.821,2.945 v 94.766 c 0,1.141 0.59,2.199 1.563,2.801 0.527,0.328 1.129,0.492 1.73,0.492 0.5,0 1.008,-0.117 1.469,-0.348 l 18.934,-9.468 v 18.371 c 0,1.14 0.589,2.199 1.558,2.797 0.528,0.328 1.129,0.492 1.731,0.492 0.504,0 1.008,-0.114 1.472,-0.348 l 18.93,-9.465 v 18.371 c 0,1.137 0.59,2.2 1.559,2.797 0.527,0.328 1.129,0.492 1.73,0.492 0.504,0 1.008,-0.113 1.473,-0.347 l 18.929,-9.465 v 18.367 c 0,1.141 0.59,2.199 1.559,2.797 0.973,0.602 2.184,0.656 3.203,0.144 l 30.774,-15.386 v 18.367 c 0,1.453 0.953,2.73 2.339,3.152 0.317,0.094 0.637,0.141 0.954,0.141 1.078,0 2.117,-0.535 2.738,-1.465 l 23.207,-34.812 34.758,-17.379 c 1.113,-0.555 1.816,-1.696 1.816,-2.942 V 75.719 c 0,-1.141 -0.59,-2.199 -1.559,-2.797"
         style="fill:#ffffff;fill-opacity:1;fill-rule:nonzero;stroke:none"
         id="path190" />
    </g>
    <g
       id="g192">
      <g
         id="g194"
         clip-path="url(#clipPath198)">
        <g
           id="g200">
          <g
             id="g202">
            <g
               id="g204"
               clip-path="url(#clipPath208)">
              <g
                 id="g210" />
              <g
                 id="g212">
                <g
                   id="g214"
                   clip-path="url(#clipPath218)">
                  <g
                     id="g220">
                    <g
                       id="g222">
                      <g
                         id="g224"
                         clip-path="url(#clipPath228)">
                        <g
                           id="g230">
                          <path
                             d="M 233.148,7.125 C 152.324,7.125 74.188,18.176 0,38.84 v 198.48 c 0,44.168 6.098,84.977 18.129,121.278 11.203,33.82 27.906,64.785 49.641,92.035 37.609,47.144 90.699,84.597 162.296,114.496 l 3.11,1.312 3.113,-1.312 c 71.598,-29.899 124.684,-67.352 162.293,-114.496 21.734,-27.25 38.438,-58.215 49.641,-92.035 12.031,-36.301 18.129,-77.11 18.129,-121.278 V 38.84 C 392.164,18.176 313.977,7.125 233.148,7.125"
                             style="fill:#412d92;fill-opacity:1;fill-rule:nonzero;stroke:none"
                             id="path232" />
                          <path
                             d="m 122.219,346.367 v -7.555 l -14.828,10.778 -4.977,-6.848 -0.059,0.063 c -9.746,9.851 -18.335,20.847 -25.523,32.683 l -0.086,0.137 0.16,-0.035 c 13.477,-3.18 26.594,-7.953 38.981,-14.18 l 0.07,-0.035 -4.973,-6.844 z"
                             style="fill:#ffffff;fill-opacity:1;fill-rule:nonzero;stroke:none"
                             id="path234" />
                          <path
                             d="m 369.188,166.934 10.531,-7.649 -3.594,-4.945 -10.531,7.648 2.312,-14.597 -27.801,24.761 -1.496,9.442 -32.781,23.82 h 10.399 l 25.98,-18.879 9.441,1.5 32.137,-18.789 z"
                             style="fill:#ffffff;fill-opacity:1;fill-rule:nonzero;stroke:none"
                             id="path236" />
                          <path
                             d="m 233.168,364.949 c 0,0 -0.008,0 -0.008,0 -2.941,0 -5.863,-0.433 -8.66,-1.254 l -71.031,51.602 -4.973,-6.84 -0.055,0.055 c -9.75,9.855 -18.336,20.855 -25.531,32.687 l -0.082,0.137 0.156,-0.035 c 13.477,-3.18 26.594,-7.953 38.981,-14.18 l 0.074,-0.035 -4.977,-6.844 z"
                             style="fill:#ffffff;fill-opacity:1;fill-rule:nonzero;stroke:none"
                             id="path238" />
                          <path
                             d="m 415.27,232.645 10.531,-7.649 -3.598,-4.945 -10.531,7.648 2.312,-14.597 -27.796,24.757 -1.497,9.446 -40.589,29.488 v 7.555 l 44.183,-32.102 9.442,1.5 32.14,-18.789 z"
                             style="fill:#ffffff;fill-opacity:1;fill-rule:nonzero;stroke:none"
                             id="path240" />
                          <path
                             d="m 184.34,350.828 h -10.399 l -43.511,31.613 -4.977,-6.843 -0.055,0.062 c -9.75,9.852 -18.336,20.848 -25.527,32.684 l -0.086,0.136 0.16,-0.035 c 13.477,-3.179 26.594,-7.953 38.981,-14.179 l 0.07,-0.036 -4.973,-6.847 z"
                             style="fill:#ffffff;fill-opacity:1;fill-rule:nonzero;stroke:none"
                             id="path242" />
                          <path
                             d="m 392.227,199.789 10.531,-7.648 -3.594,-4.946 -10.531,7.649 2.312,-14.598 -27.797,24.762 -1.496,9.441 -17.55,12.75 v 7.559 l 21.144,-15.367 9.445,1.5 32.137,-18.789 z"
                             style="fill:#ffffff;fill-opacity:1;fill-rule:nonzero;stroke:none"
                             id="path244" />
                          <path
                             d="m 278.973,137.125 c -14.985,2.789 -30.274,4.199 -45.782,4.199 -15.496,0 -30.777,-1.402 -45.753,-4.195 -0.129,-0.848 -0.266,-1.695 -0.407,-2.539 15.106,-2.836 30.528,-4.27 46.16,-4.27 15.645,0 31.067,1.434 46.184,4.27 -0.145,0.844 -0.273,1.687 -0.402,2.535 m -75.231,-32.059 c 4.227,0 7.656,3.43 7.656,7.661 0,4.23 -3.429,7.66 -7.656,7.66 -4.23,0 -7.664,-3.43 -7.664,-7.66 0,-4.231 3.434,-7.661 7.664,-7.661 m 29.414,-7.949 10.832,10.836 -10.832,10.836 -10.836,-10.836 z m 29.367,7.949 c 4.235,0 7.665,3.43 7.665,7.661 0,4.23 -3.43,7.66 -7.665,7.66 -4.226,0 -7.656,-3.43 -7.656,-7.66 0,-4.231 3.43,-7.661 7.656,-7.661 m 58.856,-47.332 c 0,0 -1.242,-0.179 -3.184,-0.218 -0.011,0.011 -0.023,0.019 -0.035,0.035 -4.476,-0.082 -12.683,0.594 -18.18,5.965 -2.046,2.004 -2.695,4.726 -2.703,7.355 0,0.238 0.004,0.473 0.012,0.707 0.004,0.152 0.02,0.301 0.027,0.453 0.004,0.071 0.008,0.141 0.012,0.211 0.02,0.207 0.035,0.418 0.059,0.625 0.004,0.004 0.004,0.008 0.004,0.012 0.05,0.496 0.121,0.984 0.203,1.449 -0.801,-0.848 -1.778,-1.574 -2.973,-2.074 -9.113,-3.801 -19.164,1.078 -19.164,1.078 0,0 2.352,11.402 12.731,14.367 2.523,0.719 5.003,0.367 7.113,-0.351 l -2.156,3.882 c -2.766,4.973 -8.379,7.618 -13.985,6.586 -7.18,-1.32 -11.949,-8.238 -10.629,-15.421 l -3.004,-0.555 -3.007,-0.551 c -0.641,3.481 -2.594,6.504 -5.512,8.512 -2.91,2.008 -6.43,2.758 -9.914,2.121 -6.293,-1.164 -10.856,-6.645 -10.844,-13.035 l -0.004,-8.246 c 1.777,1.961 4.313,3.812 7.563,3.812 9.902,0 17.316,-8.391 17.316,-8.391 0,0 -7.414,-8.382 -17.316,-8.382 -1.2,0 -2.305,0.258 -3.309,0.675 1.953,-1.867 3.531,-4.285 3.531,-7.23 0,-11.039 -10.828,-19.301 -10.828,-19.301 0,0 -10.828,8.262 -10.828,19.301 0,2.945 1.574,5.363 3.527,7.23 -1.004,-0.417 -2.109,-0.675 -3.308,-0.675 -9.899,0 -17.313,8.382 -17.313,8.382 0,0 7.414,8.391 17.313,8.391 3.254,0 5.789,-1.851 7.562,-3.812 l -0.004,8.246 c 0.016,6.39 -4.547,11.871 -10.843,13.035 -3.481,0.637 -7,-0.113 -9.914,-2.121 -2.911,-2.008 -4.872,-5.031 -5.512,-8.512 l -3,0.551 -3.008,0.555 c 1.32,7.183 -3.449,14.101 -10.633,15.421 -5.597,1.032 -11.219,-1.613 -13.976,-6.586 l -2.157,-3.882 c 2.106,0.718 4.586,1.07 7.11,0.351 10.375,-2.965 12.726,-14.367 12.726,-14.367 0,0 -10.043,-4.879 -19.16,-1.078 -1.195,0.5 -2.176,1.226 -2.976,2.074 0.086,-0.465 0.152,-0.953 0.211,-1.449 0,-0.004 0,-0.008 0,-0.012 0.019,-0.207 0.042,-0.418 0.054,-0.625 0.004,-0.07 0.012,-0.14 0.016,-0.211 0.008,-0.152 0.019,-0.301 0.023,-0.453 0.012,-0.234 0.016,-0.469 0.016,-0.707 -0.004,-2.629 -0.656,-5.351 -2.703,-7.355 -5.5,-5.371 -13.707,-6.047 -18.184,-5.965 -0.008,-0.016 -0.019,-0.024 -0.031,-0.035 -1.945,0.039 -3.188,0.218 -3.188,0.218 0,0 -0.261,2.153 -0.074,5.231 5.422,5.808 10.305,11.996 14.621,18.512 5.973,9.015 10.856,18.648 14.59,28.742 l 11.762,6.789 -6.449,11.168 c 1.039,4.629 1.847,9.328 2.422,14.082 h 0.007 c 0.082,0.019 0.164,0.035 0.246,0.051 16.653,3.394 33.684,5.113 50.973,5.125 0.027,0 0.055,0 0.082,0 0.027,0 0.055,0 0.082,0 17.293,-0.012 34.32,-1.731 50.969,-5.125 0.082,-0.016 0.168,-0.032 0.25,-0.051 h 0.008 c 0.574,-4.754 1.383,-9.453 2.422,-14.082 l -6.45,-11.168 11.758,-6.789 c 3.735,-10.094 8.621,-19.727 14.59,-28.742 4.32,-6.516 9.203,-12.704 14.629,-18.512 0.18,-3.078 -0.082,-5.231 -0.082,-5.231"
                             style="fill:#ffffff;fill-opacity:1;fill-rule:nonzero;stroke:none"
                             id="path246" />
                          <path
                             d="m 233.16,216.168 -86.004,-62.484 -9.437,1.492 -32.141,-18.781 14.598,-2.313 -10.531,-7.656 3.593,-4.942 10.532,7.653 -2.313,-14.602 27.801,24.762 1.496,9.445 82.406,59.871 82.41,-59.871 1.496,-9.445 27.797,-24.762 -2.312,14.602 10.531,-7.653 3.594,4.942 -10.531,7.656 14.601,2.313 -32.141,18.781 -9.441,-1.492 z"
                             style="fill:#ffffff;fill-opacity:1;fill-rule:nonzero;stroke:none"
                             id="path248" />
                          <path
                             d="m 328.711,222.746 0.113,112.801 h -80.105 l -0.567,2.34 c -1.679,6.937 -7.843,11.785 -14.988,11.785 -7.152,0 -13.312,-4.848 -14.992,-11.785 l -0.57,-2.34 H 137.5 l 0.113,-112.801 h -6.226 V 341.66 h 81.547 c 3.07,8.426 11.07,14.121 20.23,14.121 9.152,0 17.152,-5.695 20.223,-14.121 h 81.547 V 222.746 Z"
                             style="fill:#ffffff;fill-opacity:1;fill-rule:nonzero;stroke:none"
                             id="path250" />
                          <path
                             d="m 389.492,375.488 c -7.187,-11.836 -15.777,-22.828 -25.527,-32.687 l -0.055,-0.055 -4.976,6.84 -14.829,-10.774 v 7.559 l 11.235,8.16 -4.973,6.84 0.071,0.039 c 12.386,6.227 25.503,10.996 38.98,14.18 l 0.156,0.039 z"
                             style="fill:#ffffff;fill-opacity:1;fill-rule:nonzero;stroke:none"
                             id="path252" />
                          <path
                             d="m 150.094,205.414 h 10.402 l -32.785,-23.82 -1.492,-9.442 -27.801,-24.761 2.312,14.597 -10.531,-7.648 -3.594,4.945 10.532,7.649 -14.598,2.312 32.133,18.789 9.445,-1.492 z"
                             style="fill:#ffffff;fill-opacity:1;fill-rule:nonzero;stroke:none"
                             id="path254" />
                          <path
                             d="m 122.219,227.199 -17.551,-12.75 -1.492,-9.441 -27.801,-24.762 2.313,14.602 -10.532,-7.657 -3.594,4.946 10.532,7.656 -14.598,2.312 32.141,18.782 9.437,-1.492 21.145,15.359 z"
                             style="fill:#ffffff;fill-opacity:1;fill-rule:nonzero;stroke:none"
                             id="path256" />
                          <path
                             d="m 366.453,408.344 c -7.191,-11.836 -15.777,-22.828 -25.527,-32.688 l -0.055,-0.054 -4.976,6.839 -43.512,-31.609 h -10.399 l 50.317,36.555 -4.973,6.84 0.067,0.039 c 12.386,6.226 25.503,10.996 38.984,14.179 l 0.156,0.039 z"
                             style="fill:#ffffff;fill-opacity:1;fill-rule:nonzero;stroke:none"
                             id="path258" />
                          <path
                             d="m 122.219,276.793 -40.59,-29.488 -1.492,-9.446 -27.801,-24.757 2.312,14.597 -10.531,-7.648 -3.594,4.945 10.532,7.649 -14.598,2.312 32.141,18.789 9.437,-1.496 44.184,32.098 z"
                             style="fill:#ffffff;fill-opacity:1;fill-rule:nonzero;stroke:none"
                             id="path260" />
                          <path
                             d="m 317.883,408.512 -0.055,-0.055 -4.973,6.84 -71.031,-51.602 c -2.797,0.825 -5.719,1.254 -8.66,1.254 -0.004,0 -0.004,0 -0.004,0 l 76.102,55.293 -4.977,6.84 0.07,0.035 c 12.391,6.231 25.504,11 38.985,14.184 l 0.156,0.039 -0.086,-0.141 c -7.191,-11.832 -15.777,-22.828 -25.527,-32.687"
                             style="fill:#ffffff;fill-opacity:1;fill-rule:nonzero;stroke:none"
                             id="path262" />
                          <path
                             d="m 122.219,296.773 v -7.554 l -37.871,27.511 -4.973,-6.839 -0.059,0.054 c -9.746,9.86 -18.336,20.856 -25.527,32.688 l -0.082,0.14 0.156,-0.039 c 13.481,-3.183 26.594,-7.953 38.981,-14.179 l 0.074,-0.039 -4.977,-6.84 z"
                             style="fill:#ffffff;fill-opacity:1;fill-rule:nonzero;stroke:none"
                             id="path264" />
                          <path
                             d="m 412.531,342.633 c -7.187,-11.832 -15.777,-22.828 -25.523,-32.688 l -0.059,-0.054 -4.976,6.839 -37.871,-27.511 v 7.554 l 34.277,24.903 -4.973,6.84 0.071,0.039 c 12.386,6.226 25.503,10.996 38.98,14.179 l 0.156,0.039 z"
                             style="fill:#ffffff;fill-opacity:1;fill-rule:nonzero;stroke:none"
                             id="path266" />
                          <path
                             d="m 243.012,480.457 c -0.367,0 -0.731,-0.012 -1.09,-0.035 -1.727,6.887 -8.723,13.769 -8.723,13.769 0,0 -6.992,-6.882 -8.722,-13.769 -0.356,0.023 -0.719,0.035 -1.086,0.035 -6.86,0 -14.703,-4.074 -14.703,-4.074 0,0 4.386,-8.778 10.402,-12.555 -2.652,-6.586 -1.039,-16.262 -1.039,-16.262 0,0 9.699,1.457 15.148,6.012 5.446,-4.555 15.153,-6.012 15.153,-6.012 0,0 1.609,9.676 -1.04,16.262 6.016,3.777 10.403,12.555 10.403,12.555 0,0 -7.848,4.074 -14.703,4.074 m 31.433,9.484 c 0.961,-2.953 3.817,-11.738 4.778,-14.695 1.711,-5.273 -1.172,-10.941 -6.45,-12.656 l -13.878,-2.524 9.746,-10.195 c 3.257,-4.488 2.269,-10.769 -2.223,-14.031 -2.512,-1.824 -9.988,-7.254 -12.5,-9.078 -1.781,-1.301 -3.852,-1.922 -5.898,-1.922 -3.106,0 -6.165,1.433 -8.133,4.14 l -6.688,12.418 -6.683,-12.418 c -1.969,-2.707 -5.032,-4.14 -8.137,-4.14 -2.047,0 -4.113,0.621 -5.899,1.922 -2.511,1.824 -9.984,7.254 -12.5,9.078 -4.488,3.262 -5.484,9.543 -2.218,14.031 l 9.742,10.195 -13.875,2.524 c -5.277,1.715 -8.164,7.383 -6.449,12.656 0.957,2.957 3.812,11.742 4.773,14.695 1.379,4.247 5.317,6.946 9.551,6.946 1.031,0 2.078,-0.16 3.105,-0.496 l 12.711,-6.114 -1.89,13.977 c 0,5.547 4.496,10.043 10.047,10.043 h 15.445 c 5.551,0 10.051,-4.496 10.051,-10.043 l -1.891,-13.977 12.707,6.114 c 1.031,0.336 2.078,0.496 3.109,0.496 4.231,0 8.172,-2.699 9.547,-6.946"
                             style="fill:#ffffff;fill-opacity:1;fill-rule:nonzero;stroke:none"
                             id="path268" />
                          <path
                             d="m 235.242,462.141 c 3.465,1.125 5.363,4.847 4.235,8.316 -1.125,3.469 -4.848,5.363 -8.317,4.238 -3.469,-1.125 -5.363,-4.851 -4.238,-8.32 1.125,-3.469 4.851,-5.363 8.32,-4.234"
                             style="fill:#ffffff;fill-opacity:1;fill-rule:nonzero;stroke:none"
                             id="path270" />
                          <path
                             d="m 191.531,456.133 0.434,-0.141 0.445,-0.082 1.469,-0.269 -1.027,-1.079 -0.317,-0.332 -0.265,-0.367 c -1.575,-2.164 -2.586,-4.617 -3,-7.179 -4.856,1.203 -8.868,3.265 -9.106,3.39 l -1.316,0.68 0.664,1.332 c 0.144,0.285 2.168,4.289 5.375,8.102 1.812,-1.801 4.058,-3.219 6.644,-4.055"
                             style="fill:#ffffff;fill-opacity:1;fill-rule:nonzero;stroke:none"
                             id="path272" />
                          <path
                             d="m 232.008,424.988 0.269,0.371 0.219,0.403 0.703,1.312 0.707,-1.312 0.219,-0.403 0.27,-0.371 c 1.558,-2.152 3.597,-3.867 5.906,-5.058 -2.633,-4.227 -5.817,-7.399 -6.043,-7.618 l -1.059,-1.042 -1.054,1.042 c -0.227,0.219 -3.415,3.391 -6.043,7.618 2.308,1.191 4.347,2.906 5.906,5.058"
                             style="fill:#ffffff;fill-opacity:1;fill-rule:nonzero;stroke:none"
                             id="path274" />
                          <path
                             d="m 286.234,450.07 c -0.234,-0.121 -4.254,-2.187 -9.109,-3.39 -0.41,2.519 -1.391,4.984 -2.988,7.183 l -0.27,0.367 -0.32,0.332 -1.027,1.079 1.468,0.269 0.446,0.082 0.437,0.141 c 2.59,0.836 4.832,2.254 6.641,4.055 3.207,-3.813 5.234,-7.817 5.379,-8.102 l 0.66,-1.328 z"
                             style="fill:#ffffff;fill-opacity:1;fill-rule:nonzero;stroke:none"
                             id="path276" />
                          <path
                             d="m 264.895,503.676 c -1.762,0 -3.516,-0.278 -5.207,-0.824 l -0.434,-0.145 -0.406,-0.195 -1.344,-0.649 0.195,1.481 0.067,0.449 v 0.457 c 0,2.723 -0.657,5.289 -1.805,7.566 4.609,1.875 9.047,2.571 9.359,2.614 l 1.473,0.222 0.242,-1.464 c 0.051,-0.313 0.766,-4.743 0.414,-9.708 -0.836,0.129 -1.687,0.196 -2.554,0.196"
                             style="fill:#ffffff;fill-opacity:1;fill-rule:nonzero;stroke:none"
                             id="path278" />
                          <path
                             d="m 208.641,504.254 v -0.457 l 0.058,-0.453 0.199,-1.477 -1.339,0.641 -0.414,0.203 -0.434,0.137 c -1.688,0.55 -3.441,0.832 -5.203,0.832 -0.867,0 -1.719,-0.071 -2.551,-0.203 -0.359,4.968 0.355,9.398 0.406,9.711 l 0.246,1.464 1.469,-0.222 c 0.317,-0.047 4.75,-0.739 9.363,-2.61 -1.152,-2.277 -1.8,-4.847 -1.8,-7.566"
                             style="fill:#ffffff;fill-opacity:1;fill-rule:nonzero;stroke:none"
                             id="path280" />
                          <path
                             d="m 218.117,264.449 c -1.316,0 -2.109,1.656 -2.246,4.672 h 2.469 c 1.332,0 1.719,-0.398 1.719,-1.777 0,-1.785 -0.747,-2.895 -1.942,-2.895"
                             style="fill:#ffffff;fill-opacity:1;fill-rule:nonzero;stroke:none"
                             id="path282" />
                          <path
                             d="m 157.957,259.609 h -0.863 c -0.059,2.567 -0.059,5.11 -0.059,7.797 v 1.051 c 0,2.738 0,5.328 0.059,7.926 h 0.832 c 3.547,0 5.664,-3.141 5.664,-8.403 0,-5.32 -2.059,-8.371 -5.633,-8.371"
                             style="fill:#ffffff;fill-opacity:1;fill-rule:nonzero;stroke:none"
                             id="path284" />
                          <path
                             d="m 219.902,275.68 c 1.43,0 2.598,-0.524 3.688,-1.653 l 0.152,-0.156 1.406,1.285 -0.078,0.156 c -1.328,2.551 -3.644,3.844 -6.89,3.844 -4.95,0 -8.149,-3.289 -8.149,-8.375 0,-5.539 4.231,-8.437 8.407,-8.437 4.14,0 6.816,2.738 6.816,6.972 0,0.657 -0.063,1.196 -0.199,1.746 l -0.043,0.168 h -9.129 c 0.254,2.832 1.711,4.45 4.019,4.45 m -10.515,-8.395 c -0.375,1.238 -1.133,1.813 -2.375,1.813 -0.922,0 -2.492,-0.422 -2.649,-3.239 l -0.195,-1.402 c -0.125,-0.008 -0.262,-0.008 -0.406,-0.008 -1.657,0 -3.594,1.508 -3.594,5.758 0,3.426 1.578,5.473 4.23,5.473 1.297,0 2.375,-0.543 3.395,-1.703 l 0.152,-0.172 1.414,1.25 -0.074,0.152 c -1.25,2.586 -3.574,3.949 -6.734,3.949 -5.633,0 -8.153,-4.187 -8.153,-8.344 0,-4.984 3.629,-8.468 8.825,-8.468 3.332,0 5.929,2.043 6.179,4.851 v 0.047 z m -23.188,11.871 c -2.078,0 -3.929,-0.488 -5.652,-1.492 l -0.113,-0.07 0.105,-4.239 h 2.957 l 0.551,3.211 c 0.746,0.266 1.43,0.387 2.187,0.387 1.731,0 2.606,-0.555 2.606,-1.652 0,-0.817 -0.418,-1.442 -2.508,-2.039 l -1.723,-0.516 c -2.625,-0.773 -4.015,-2.484 -4.015,-4.957 0,-3.258 2.765,-5.445 6.879,-5.445 1.761,0 3.25,0.383 5.132,1.328 l 0.137,0.066 -0.246,3.832 h -2.941 l -0.645,-2.793 c -0.422,-0.14 -0.902,-0.203 -1.562,-0.203 -0.653,0 -2.16,0.153 -2.16,1.559 0,0.609 0.191,1.211 2.511,1.914 l 1.559,0.449 c 3,0.883 4.398,2.52 4.398,5.152 0,3.45 -2.789,5.508 -7.457,5.508 m -6.543,-0.476 h -8.894 v -1.903 l 1.726,-0.382 c 0.028,-1.5 0.028,-3.372 0.028,-4.625 v -1.532 c 0,-1.679 -0.028,-2.636 -0.086,-3.812 l -1.985,-0.285 v -1.606 l 6.946,-2.215 0.738,0.477 -0.098,4.742 v 4.231 c 0,1.265 0,3.156 0.028,4.683 l 1.597,0.32 z m -21.765,0 h -9.106 v -2.149 l 2.391,-0.254 c 0.058,-2.511 0.058,-5.078 0.058,-7.789 v -1.082 c 0,-2.531 0,-5.148 -0.058,-7.687 l -2.391,-0.258 v -2.149 h 9.68 c 6.836,0 11.082,4.075 11.082,10.637 0,6.617 -4.465,10.731 -11.656,10.731 m 17.336,-23.758 c 1.668,0 2.929,1.195 2.929,2.773 0,1.567 -1.261,2.743 -2.929,2.743 -1.672,0 -2.934,-1.176 -2.934,-2.743 0,-1.578 1.262,-2.773 2.934,-2.773 m 34.855,-43.395 h -66.355 v 111.981 h 66.355 c 8.035,0 15.227,3.637 20.023,9.351 V 231.543 c 0,-11.039 -8.98,-20.016 -20.023,-20.016"
                             style="fill:#ffffff;fill-opacity:1;fill-rule:nonzero;stroke:none"
                             id="path286" />
                          <path
                             d="m 253.957,259.609 h -0.859 c -0.063,2.567 -0.063,5.11 -0.063,7.797 v 1.051 c 0,2.738 0,5.328 0.063,7.926 h 0.828 c 3.547,0 5.664,-3.141 5.664,-8.403 0,-5.32 -2.055,-8.371 -5.633,-8.371"
                             style="fill:#ffffff;fill-opacity:1;fill-rule:nonzero;stroke:none"
                             id="path288" />
                          <path
                             d="m 274.969,264.48 c -1.692,0 -2.485,2.004 -2.485,6.305 0,5.613 1.418,6.266 2.485,6.266 1.668,0 2.445,-1.992 2.445,-6.266 0,-4.242 -0.801,-6.305 -2.445,-6.305"
                             style="fill:#ffffff;fill-opacity:1;fill-rule:nonzero;stroke:none"
                             id="path290" />
                          <path
                             d="m 309.734,275.68 c 1.43,0 2.598,-0.524 3.688,-1.653 l 0.152,-0.156 1.406,1.285 -0.078,0.156 c -1.328,2.551 -3.644,3.844 -6.89,3.844 -4.95,0 -8.149,-3.289 -8.149,-8.375 0,-5.539 4.231,-8.437 8.407,-8.437 4.14,0 6.812,2.738 6.812,6.972 0,0.657 -0.059,1.196 -0.195,1.746 l -0.043,0.168 h -9.129 c 0.254,2.832 1.711,4.45 4.019,4.45 m -10.515,-8.395 c -0.375,1.238 -1.133,1.813 -2.375,1.813 -0.922,0 -2.492,-0.422 -2.649,-3.239 L 294,264.457 c -0.125,-0.008 -0.262,-0.008 -0.41,-0.008 -1.652,0 -3.59,1.508 -3.59,5.758 0,3.426 1.578,5.473 4.23,5.473 1.297,0 2.375,-0.543 3.395,-1.703 l 0.152,-0.172 1.414,1.25 -0.074,0.152 c -1.25,2.586 -3.574,3.949 -6.734,3.949 -5.633,0 -8.153,-4.187 -8.153,-8.344 0,-4.984 3.629,-8.468 8.825,-8.468 3.332,0 5.929,2.043 6.179,4.851 v 0.047 z m -24.25,11.871 c -5.051,0 -8.317,-3.324 -8.317,-8.468 0,-4.84 3.5,-8.344 8.317,-8.344 4.894,0 8.308,3.426 8.308,8.344 0,5.144 -3.257,8.468 -8.308,8.468 m -21.074,-0.476 h -9.11 v -2.149 l 2.395,-0.254 c 0.054,-2.511 0.054,-5.078 0.054,-7.789 v -1.082 c 0,-2.531 0,-5.148 -0.054,-7.687 l -2.395,-0.258 v -2.149 h 9.684 c 6.836,0 11.082,4.075 11.082,10.637 0,6.617 -4.469,10.731 -11.656,10.731 m 2.339,-67.153 c -11.039,0 -20.015,8.977 -20.015,20.016 v 101.316 c 4.797,-5.714 11.988,-9.351 20.015,-9.351 h 66.364 V 211.527 Z"
                             style="fill:#ffffff;fill-opacity:1;fill-rule:nonzero;stroke:none"
                             id="path292" />
                          <path
                             d="m 307.949,264.449 c -1.316,0 -2.109,1.656 -2.246,4.672 h 2.469 c 1.332,0 1.719,-0.398 1.719,-1.777 0,-1.785 -0.746,-2.895 -1.942,-2.895"
                             style="fill:#ffffff;fill-opacity:1;fill-rule:nonzero;stroke:none"
                             id="path294" />
                          <path
                             d="m 639.949,59.266 h 55.813 v 10.933 l -19.766,2.324 v 76.282 c 0,49.07 -23.258,68.605 -58.375,68.605 -33.953,0 -57.906,-17.906 -57.906,-62.094 v -25.347 c 0,-19.074 0,-38.61 -0.465,-57.91 l -18.141,-1.86 V 59.266 h 70.696 v 10.933 l -21.391,2.324 c -0.465,18.836 -0.465,38.137 -0.465,57.446 v 18.136 c 0,37.907 13.02,50.469 35.813,50.469 23.722,0 36.742,-14.422 36.742,-52.797 V 72.758 l -22.555,-2.559 z"
                             style="fill:#412d92;fill-opacity:1;fill-rule:nonzero;stroke:none"
                             id="path296" />
                          <path
                             d="m 698.555,203.922 15.113,-3.027 c 0.234,-11.395 0.234,-26.278 0.234,-36.278 v -12.324 c 0,-12.793 -0.234,-18.605 -0.699,-27.906 l -16.281,-2.098 v -8.836 l 38.84,-14.648 3.722,2.324 1.625,17.906 c 11.864,-13.488 25.352,-20.23 39.539,-20.23 20.231,0 31.629,12.789 31.629,41.625 v 24.187 c 0,10.465 0,25.117 0.231,36.512 l 14.183,2.793 v 9.535 h -57.437 v -9.535 l 14.879,-3.027 c 0.238,-11.395 0.238,-25.813 0.238,-36.278 v -22.09 c 0,-18.14 -4.652,-24.187 -16.281,-24.187 -8.141,0 -16.746,3.719 -26.047,11.394 v 34.883 c 0,10.231 0,24.883 0.234,36.512 l 13.719,2.793 v 9.535 h -57.441 z"
                             style="fill:#412d92;fill-opacity:1;fill-rule:nonzero;stroke:none"
                             id="path298" />
                          <path
                             d="m 546.027,516.066 2.075,-49.906 h 26.691 l 6.934,41.934 c 10.742,4.851 21.14,7.277 35.003,7.277 28.77,0 46.098,-14.555 46.098,-37.43 0,-20.449 -11.09,-29.808 -36.39,-40.207 l -14.215,-5.89 c -38.125,-16.289 -62.039,-36.739 -62.039,-73.481 0,-40.898 33.621,-65.508 82.144,-65.508 23.914,0 45.059,6.934 61,18.024 l -2.426,46.793 h -26.34 l -6.933,-40.207 c -8.32,-3.813 -16.289,-5.547 -25.996,-5.547 -23.223,0 -41.59,12.828 -41.59,35.359 0,20.102 12.824,31.192 35.703,40.551 l 14.902,6.234 c 45.059,19.063 62.735,38.473 62.735,72.438 0,40.898 -32.582,67.934 -86.305,67.934 -25.996,0 -53.027,-6.93 -71.051,-18.368"
                             style="fill:#412d92;fill-opacity:1;fill-rule:nonzero;stroke:none"
                             id="path300" />
                          <path
                             d="m 716.098,514.332 22.871,-4.508 c 0.351,-16.98 0.351,-39.16 0.351,-54.066 V 307.07 l -25.3,-3.468 v -13.516 l 62.039,-15.594 5.195,3.113 -1.387,48.875 v 62.04 c 17.676,-20.45 38.125,-30.848 59.27,-30.848 30.156,0 47.484,19.062 47.484,62.039 v 36.047 c 0,15.601 0,37.43 0.348,54.414 l 21.14,4.16 v 14.215 H 822.5 v -14.215 l 22.184,-4.508 c 0.347,-16.98 0.347,-38.465 0.347,-54.066 v -32.926 c 0,-27.035 -6.59,-36.047 -23.918,-36.047 -13.168,0 -25.992,6.238 -40.203,19.758 v 49.215 c 0,15.254 0,37.086 0.344,54.414 l 20.449,4.16 v 14.215 h -85.605 z"
                             style="fill:#412d92;fill-opacity:1;fill-rule:nonzero;stroke:none"
                             id="path302" />
                        </g>
                      </g>
                    </g>
                  </g>
                </g>
              </g>
            </g>
          </g>
        </g>
      </g>
    </g>
    <g
       id="g304">
      <g
         id="g306"
         clip-path="url(#clipPath310)">
        <g
           id="g312">
          <g
             id="g314">
            <g
               id="g316"
               clip-path="url(#clipPath320)">
              <g
                 id="g322" />
              <g
                 id="g324">
                <g
                   id="g326"
                   clip-path="url(#clipPath330)">
                  <g
                     id="g332">
                    <g
                       id="g334">
                      <g
                         id="g336"
                         clip-path="url(#clipPath340)">
                        <g
                           id="g342">
                          <path
                             d="M 516.418,336.398 H 750.293 V 570.269 H 516.418 Z"
                             style="fill:#211f5e;fill-opacity:1;fill-rule:nonzero;stroke:none"
                             id="path344" />
                          <path
                             d="m 697.285,453.332 h -36.656 v -39.144 z m -31.965,72.781 h -31.965 v 12.778 l -22.496,-29.485 c 17.129,-3.152 25.977,-12.011 25.977,-27.437 0,-3.805 -0.543,-7.203 -1.613,-10.215 h 30.097 z m -95.894,-54.359 h 24.953 c 10.258,0 14.414,3.976 14.414,10.215 0,6.242 -4.156,10.343 -14.414,10.343 h -24.953 z m 63.929,-46.32 v 42.308 c -5.804,-9.801 -19.16,-14.355 -38.976,-14.406 17.683,-1.793 34.031,-11.336 38.976,-27.902 m 91.2,-63.301 h -27.27 l -36.656,39.039 v -39.039 h -52.977 v 51.824 c 0,11.098 -8.214,17.535 -19.113,17.535 -10.894,0 -19.113,-6.437 -19.113,-17.535 v -51.824 h -27.27 v 52.222 c 0,23.387 18.883,36.805 40.184,38.977 h -40.184 v 91.199 h 27.27 v -33.797 h 11.914 l 25.199,33.797 H 724.555 V 526.113 H 692.59 v -54.359 h 31.965 v -24.059 l -39.086,-40.023 39.086,-39.899 z"
                             style="fill:#ffffff;fill-opacity:1;fill-rule:nonzero;stroke:none"
                             id="path346" />
                        </g>
                      </g>
                    </g>
                  </g>
                </g>
              </g>
            </g>
          </g>
        </g>
      </g>
    </g>
  </g>
</svg>
